<?xml version="1.0" standalone="no"?>
<!DOCTYPE svg PUBLIC "-//W3C//DTD SVG 20010904//EN"
 "http://www.w3.org/TR/2001/REC-SVG-20010904/DTD/svg10.dtd">
<svg version="1.0" xmlns="http://www.w3.org/2000/svg"
 width="318.000000pt" height="318.000000pt" viewBox="0 0 318.000000 318.000000"
 preserveAspectRatio="xMidYMid meet">
<metadata>
Created by potrace 1.11, written by Peter Selinger 2001-2013
</metadata>
<g transform="translate(0.000000,318.000000) scale(0.100000,-0.100000)"
fill="#000000" stroke="none">
<path d="M1385 2895 c-44 -8 -120 -26 -170 -40 -101 -29 -275 -108 -275 -124
0 -16 3 -15 102 25 162 64 264 86 443 91 178 6 280 -7 426 -53 442 -139 775
-518 853 -974 68 -399 -64 -810 -354 -1100 -183 -184 -402 -302 -663 -357
-113 -24 -371 -24 -484 0 -265 56 -480 174 -663 363 -139 144 -229 293 -291
484 -26 79 -49 114 -49 73 0 -33 50 -202 84 -283 158 -373 472 -662 855 -784
164 -52 226 -61 426 -61 135 0 200 4 260 18 276 60 509 184 695 369 536 532
546 1389 23 1938 -190 200 -420 332 -693 397 -133 31 -398 41 -525 18z"/>
<path d="M1295 2785 c-465 -86 -828 -423 -952 -882 -25 -90 -27 -114 -27 -293
0 -179 2 -203 27 -293 174 -645 820 -1025 1459 -857 94 24 232 82 229 95 -3
13 -11 12 -114 -25 -317 -110 -675 -64 -957 122 -387 254 -563 731 -434 1175
118 408 464 715 887 789 132 23 328 15 462 -20 186 -48 394 -171 514 -302 116
-127 211 -295 249 -444 11 -41 25 -76 32 -78 30 -10 -28 213 -90 346 -148 316
-442 558 -787 649 -125 32 -371 41 -498 18z"/>
<path d="M1383 2510 c-554 -120 -888 -657 -749 -1204 91 -355 374 -628 741
-712 123 -28 320 -24 449 10 350 91 620 364 708 712 31 125 31 362 0 477 -60
219 -203 428 -377 552 -83 60 -233 131 -330 156 -120 31 -321 35 -442 9z m416
-61 c97 -22 221 -78 311 -139 272 -185 429 -532 389 -861 -46 -386 -314 -692
-695 -795 -54 -15 -103 -19 -229 -18 -144 0 -169 3 -248 27 -228 70 -412 209
-532 402 -187 300 -183 689 10 991 48 75 162 194 240 249 117 84 275 145 420
164 93 13 231 4 334 -20z"/>
<path d="M1395 2436 c-341 -80 -590 -317 -687 -653 -19 -66 -23 -102 -23 -228
0 -178 14 -241 84 -390 111 -234 309 -403 566 -481 81 -25 105 -28 245 -28
140 0 164 3 243 27 338 104 574 358 644 695 21 105 13 319 -16 417 -47 158
-130 293 -247 406 -112 107 -210 164 -364 214 -74 24 -104 28 -235 31 -104 3
-168 -1 -210 -10z"/>
</g>
</svg>
